{"asset":{"version":"2.0","generator":"THREE.GLTFExporter"},"scenes":[{"nodes":[0]}],"scene":0,"nodes":[{"mesh":0}],"bufferViews":[{"buffer":0,"byteOffset":0,"byteLength":36648,"target":34962,"byteStride":12},{"buffer":0,"byteOffset":36648,"byteLength":6108,"target":34963}],"buffers":[{"byteLength":42756,"uri":"data:application/octet-stream;base64,"}],"accessors":[{"bufferView":0,"componentType":5126,"count":3054,"max":[59.599998474121094,3.2735629081726074,19.599401473999023],"min":[-59.599998474121094,0.8735630512237549,-19.600601196289062],"type":"VEC3"},{"bufferView":1,"componentType":5123,"count":3054,"max":[3053],"min":[0],"type":"SCALAR"}],"materials":[{"pbrMetallicRoughness":{"metallicFactor":0,"roughnessFactor":1}}],"meshes":[{"primitives":[{"mode":4,"attributes":{"POSITION":0},"indices":1,"material":0}]}]}