{
	"asset":{
		"generator":"Khronos glTF Blender I/O v4.1.62",
		"version":"2.0"
	},
	"scene":0,
	"scenes":[
		{
			"name":"Scene",
			"nodes":[
				0
			]
		}
	],
	"nodes":[
		{
			"mesh":0,
			"name":"Torus.001",
			"translation":[
				-0.005881687626242638,
				0.04943348467350006,
				0
			]
		}
	],
	"materials":[
		{
			"doubleSided":true,
			"name":"Material.002",
			"pbrMetallicRoughness":{
				"baseColorTexture":{
					"index":0
				},
				"metallicFactor":0,
				"roughnessFactor":0.5
			}
		}
	],
	"meshes":[
		{
			"name":"Torus.001",
			"primitives":[
				{
					"attributes":{
						"POSITION":0,
						"NORMAL":1,
						"TEXCOORD_0":2
					},
					"indices":3,
					"material":0
				}
			]
		}
	],
	"textures":[
		{
			"sampler":0,
			"source":0
		}
	],
	"images":[
		{
			"mimeType":"image/png",
			"name":"donut base2",
			"uri":"donut%20base2.png"
		}
	],
	"accessors":[
		{
			"bufferView":0,
			"componentType":5126,
			"count":429,
			"max":[
				0.14388610422611237,
				0.053337711840867996,
				0.14388734102249146
			],
			"min":[
				-0.14586523175239563,
				-0.05091368034482002,
				-0.14387020468711853
			],
			"type":"VEC3"
		},
		{
			"bufferView":1,
			"componentType":5126,
			"count":429,
			"type":"VEC3"
		},
		{
			"bufferView":2,
			"componentType":5126,
			"count":429,
			"type":"VEC2"
		},
		{
			"bufferView":3,
			"componentType":5123,
			"count":2304,
			"type":"SCALAR"
		}
	],
	"bufferViews":[
		{
			"buffer":0,
			"byteLength":5148,
			"byteOffset":0,
			"target":34962
		},
		{
			"buffer":0,
			"byteLength":5148,
			"byteOffset":5148,
			"target":34962
		},
		{
			"buffer":0,
			"byteLength":3432,
			"byteOffset":10296,
			"target":34962
		},
		{
			"buffer":0,
			"byteLength":4608,
			"byteOffset":13728,
			"target":34963
		}
	],
	"samplers":[
		{
			"magFilter":9729,
			"minFilter":9987
		}
	],
	"buffers":[
		{
			"byteLength":18336,
			"uri":"donut4_alt.bin"
		}
	]
}
